<svg viewBox="0 0 306 345" version="1.1" xmlns="http://www.w3.org/2000/svg" xmlns:xlink="http://www.w3.org/1999/xlink" xml:space="preserve" xmlns:serif="http://www.serif.com/" style="fill-rule:evenodd;clip-rule:evenodd;stroke-linejoin:round;stroke-miterlimit:2;">
                            <g transform="matrix(0.138361,0,0,0.138361,-0.719115,-0.776587)">
                                <path d="M2212.12,740.069C2212.11,698.447 2203.2,661.667 2185.2,630.11C2167.52,599.061 2141.04,573.045 2105.52,552.475C1812.31,383.409 1518.81,214.86 1225.7,45.621C1146.68,-0 1070.06,1.672 991.622,47.948C874.916,116.767 290.607,451.53 116.491,552.38C44.785,593.9 9.893,657.428 9.876,739.992C9.764,1079.99 9.876,1420 9.764,1760C9.764,1800.71 18.303,1836.78 35.513,1867.87C53.204,1899.84 80.056,1926.58 116.396,1947.61C290.521,2048.46 874.907,2383.2 991.588,2452.04C1070.06,2498.35 1146.68,2500 1225.73,2454.37C1518.85,2285.12 1812.36,2116.57 2105.61,1947.51C2141.95,1926.48 2168.8,1899.73 2186.5,1867.78C2203.68,1836.69 2212.24,1800.62 2212.24,1759.9C2212.24,1759.9 2212.24,1080.08 2212.12,740.069" style="fill:#20C20E;fill-rule:nonzero;"></path>
                            </g>
                            <g>
                                <path d="M153,274.175C96.757,274.175 51,228.418 51,172.175C51,115.932 96.757,70.175 153,70.175C189.292,70.175 223.139,89.705 241.331,121.143L197.188,146.687C188.083,130.951 171.15,121.175 153,121.175C124.878,121.175 102,144.053 102,172.175C102,200.296 124.878,223.175 153,223.175C171.152,223.175 188.085,213.399 197.191,197.66L241.334,223.203C223.142,254.644 189.294,274.175 153,274.175Z" style="fill:rgb(23,22,22);fill-rule:nonzero;"></path>
                            </g>
                            <g>
                                <path d="M255,166.508L243.666,166.508L243.666,155.175L232.334,155.175L232.334,166.508L221,166.508L221,177.841L232.334,177.841L232.334,189.175L243.666,189.175L243.666,177.841L255,177.841L255,166.508Z" style="fill:rgb(23,22,22);fill-rule:nonzero;"></path>
                            </g>
                            <g>
                                <path d="M297.5,166.508L286.166,166.508L286.166,155.175L274.834,155.175L274.834,166.508L263.5,166.508L263.5,177.841L274.834,177.841L274.834,189.175L286.166,189.175L286.166,177.841L297.5,177.841L297.5,166.508Z" style="fill:rgb(23,22,22);fill-rule:nonzero;"></path>
                            </g>
                        </svg>